STARTFONT 2.1
FONT -monodromy-Random2x4-Medium-R-Normal--4-40-72-72-C-20-ISO10646-1
SIZE 4 72 72
FONTBOUNDINGBOX 2 4 0 -1
STARTPROPERTIES 23
FOUNDRY "monodromy"
FAMILY_NAME "Random2x4"
WEIGHT_NAME "Medium"
SLANT "R"
SETWIDTH_NAME "Normal"
ADD_STYLE_NAME ""
PIXEL_SIZE 4
POINT_SIZE 40
RESOLUTION_X 72
RESOLUTION_Y 72
SPACING "C"
AVERAGE_WIDTH 20
CHARSET_REGISTRY "ISO10646"
CHARSET_ENCODING "1"
COPYRIGHT "Copyright (c) 2025 TSAstron"
NOTICE "Licences under CC BY-NC-SA 4.0"
FONT_VERSION "17.1"
FONT_ASCENT 3
FONT_DESCENT 1
CAP_HEIGHT 3
X_HEIGHT 1
MIN_SPACE 2
DEFAULT_CHAR 65533
ENDPROPERTIES
CHARS 515
STARTCHAR U+0000
ENCODING 0
SWIDTH 500 0
DWIDTH 2 0
BBX 2 4 0 -1
BITMAP
00
00
00
00
ENDCHAR
STARTCHAR U+0020
ENCODING 32
SWIDTH 500 0
DWIDTH 2 0
BBX 2 4 0 -1
BITMAP
00
00
00
00
ENDCHAR
STARTCHAR U+0021
ENCODING 33
SWIDTH 500 0
DWIDTH 2 0
BBX 2 4 0 -1
BITMAP
02
02
02
00
ENDCHAR
STARTCHAR U+0022
ENCODING 34
SWIDTH 500 0
DWIDTH 2 0
BBX 2 4 0 -1
BITMAP
01
00
00
02
ENDCHAR
STARTCHAR U+0023
ENCODING 35
SWIDTH 500 0
DWIDTH 2 0
BBX 2 4 0 -1
BITMAP
02
03
01
03
ENDCHAR
STARTCHAR U+0024
ENCODING 36
SWIDTH 500 0
DWIDTH 2 0
BBX 2 4 0 -1
BITMAP
02
01
00
02
ENDCHAR
STARTCHAR U+0025
ENCODING 37
SWIDTH 500 0
DWIDTH 2 0
BBX 2 4 0 -1
BITMAP
03
01
00
01
ENDCHAR
STARTCHAR U+0026
ENCODING 38
SWIDTH 500 0
DWIDTH 2 0
BBX 2 4 0 -1
BITMAP
01
01
01
01
ENDCHAR
STARTCHAR U+0027
ENCODING 39
SWIDTH 500 0
DWIDTH 2 0
BBX 2 4 0 -1
BITMAP
00
01
01
01
ENDCHAR
STARTCHAR U+0028
ENCODING 40
SWIDTH 500 0
DWIDTH 2 0
BBX 2 4 0 -1
BITMAP
01
00
03
00
ENDCHAR
STARTCHAR U+0029
ENCODING 41
SWIDTH 500 0
DWIDTH 2 0
BBX 2 4 0 -1
BITMAP
02
03
00
01
ENDCHAR
STARTCHAR U+002A
ENCODING 42
SWIDTH 500 0
DWIDTH 2 0
BBX 2 4 0 -1
BITMAP
00
00
00
03
ENDCHAR
STARTCHAR U+002B
ENCODING 43
SWIDTH 500 0
DWIDTH 2 0
BBX 2 4 0 -1
BITMAP
02
01
01
00
ENDCHAR
STARTCHAR U+002C
ENCODING 44
SWIDTH 500 0
DWIDTH 2 0
BBX 2 4 0 -1
BITMAP
01
01
02
03
ENDCHAR
STARTCHAR U+002D
ENCODING 45
SWIDTH 500 0
DWIDTH 2 0
BBX 2 4 0 -1
BITMAP
01
02
02
00
ENDCHAR
STARTCHAR U+002E
ENCODING 46
SWIDTH 500 0
DWIDTH 2 0
BBX 2 4 0 -1
BITMAP
03
00
03
01
ENDCHAR
STARTCHAR U+002F
ENCODING 47
SWIDTH 500 0
DWIDTH 2 0
BBX 2 4 0 -1
BITMAP
01
00
01
01
ENDCHAR
STARTCHAR U+0030
ENCODING 48
SWIDTH 500 0
DWIDTH 2 0
BBX 2 4 0 -1
BITMAP
02
02
00
03
ENDCHAR
STARTCHAR U+0031
ENCODING 49
SWIDTH 500 0
DWIDTH 2 0
BBX 2 4 0 -1
BITMAP
00
01
02
01
ENDCHAR
STARTCHAR U+0032
ENCODING 50
SWIDTH 500 0
DWIDTH 2 0
BBX 2 4 0 -1
BITMAP
01
03
01
03
ENDCHAR
STARTCHAR U+0033
ENCODING 51
SWIDTH 500 0
DWIDTH 2 0
BBX 2 4 0 -1
BITMAP
00
02
03
03
ENDCHAR
STARTCHAR U+0034
ENCODING 52
SWIDTH 500 0
DWIDTH 2 0
BBX 2 4 0 -1
BITMAP
01
02
02
02
ENDCHAR
STARTCHAR U+0035
ENCODING 53
SWIDTH 500 0
DWIDTH 2 0
BBX 2 4 0 -1
BITMAP
03
00
01
03
ENDCHAR
STARTCHAR U+0036
ENCODING 54
SWIDTH 500 0
DWIDTH 2 0
BBX 2 4 0 -1
BITMAP
02
02
00
00
ENDCHAR
STARTCHAR U+0037
ENCODING 55
SWIDTH 500 0
DWIDTH 2 0
BBX 2 4 0 -1
BITMAP
00
03
03
01
ENDCHAR
STARTCHAR U+0038
ENCODING 56
SWIDTH 500 0
DWIDTH 2 0
BBX 2 4 0 -1
BITMAP
00
02
02
03
ENDCHAR
STARTCHAR U+0039
ENCODING 57
SWIDTH 500 0
DWIDTH 2 0
BBX 2 4 0 -1
BITMAP
00
02
03
01
ENDCHAR
STARTCHAR U+003A
ENCODING 58
SWIDTH 500 0
DWIDTH 2 0
BBX 2 4 0 -1
BITMAP
00
01
02
00
ENDCHAR
STARTCHAR U+003B
ENCODING 59
SWIDTH 500 0
DWIDTH 2 0
BBX 2 4 0 -1
BITMAP
00
02
00
00
ENDCHAR
STARTCHAR U+003C
ENCODING 60
SWIDTH 500 0
DWIDTH 2 0
BBX 2 4 0 -1
BITMAP
03
00
02
03
ENDCHAR
STARTCHAR U+003D
ENCODING 61
SWIDTH 500 0
DWIDTH 2 0
BBX 2 4 0 -1
BITMAP
01
00
02
03
ENDCHAR
STARTCHAR U+003E
ENCODING 62
SWIDTH 500 0
DWIDTH 2 0
BBX 2 4 0 -1
BITMAP
01
00
02
00
ENDCHAR
STARTCHAR U+003F
ENCODING 63
SWIDTH 500 0
DWIDTH 2 0
BBX 2 4 0 -1
BITMAP
03
00
01
02
ENDCHAR
STARTCHAR U+0040
ENCODING 64
SWIDTH 500 0
DWIDTH 2 0
BBX 2 4 0 -1
BITMAP
02
00
03
00
ENDCHAR
STARTCHAR U+0041
ENCODING 65
SWIDTH 500 0
DWIDTH 2 0
BBX 2 4 0 -1
BITMAP
02
00
00
03
ENDCHAR
STARTCHAR U+0042
ENCODING 66
SWIDTH 500 0
DWIDTH 2 0
BBX 2 4 0 -1
BITMAP
01
03
02
00
ENDCHAR
STARTCHAR U+0043
ENCODING 67
SWIDTH 500 0
DWIDTH 2 0
BBX 2 4 0 -1
BITMAP
01
01
00
00
ENDCHAR
STARTCHAR U+0044
ENCODING 68
SWIDTH 500 0
DWIDTH 2 0
BBX 2 4 0 -1
BITMAP
00
00
00
02
ENDCHAR
STARTCHAR U+0045
ENCODING 69
SWIDTH 500 0
DWIDTH 2 0
BBX 2 4 0 -1
BITMAP
00
01
03
02
ENDCHAR
STARTCHAR U+0046
ENCODING 70
SWIDTH 500 0
DWIDTH 2 0
BBX 2 4 0 -1
BITMAP
03
02
00
01
ENDCHAR
STARTCHAR U+0047
ENCODING 71
SWIDTH 500 0
DWIDTH 2 0
BBX 2 4 0 -1
BITMAP
03
03
02
03
ENDCHAR
STARTCHAR U+0048
ENCODING 72
SWIDTH 500 0
DWIDTH 2 0
BBX 2 4 0 -1
BITMAP
03
02
02
02
ENDCHAR
STARTCHAR U+0049
ENCODING 73
SWIDTH 500 0
DWIDTH 2 0
BBX 2 4 0 -1
BITMAP
03
00
03
02
ENDCHAR
STARTCHAR U+004A
ENCODING 74
SWIDTH 500 0
DWIDTH 2 0
BBX 2 4 0 -1
BITMAP
03
02
00
03
ENDCHAR
STARTCHAR U+004B
ENCODING 75
SWIDTH 500 0
DWIDTH 2 0
BBX 2 4 0 -1
BITMAP
01
01
01
01
ENDCHAR
STARTCHAR U+004C
ENCODING 76
SWIDTH 500 0
DWIDTH 2 0
BBX 2 4 0 -1
BITMAP
01
03
02
00
ENDCHAR
STARTCHAR U+004D
ENCODING 77
SWIDTH 500 0
DWIDTH 2 0
BBX 2 4 0 -1
BITMAP
02
03
02
01
ENDCHAR
STARTCHAR U+004E
ENCODING 78
SWIDTH 500 0
DWIDTH 2 0
BBX 2 4 0 -1
BITMAP
01
03
01
03
ENDCHAR
STARTCHAR U+004F
ENCODING 79
SWIDTH 500 0
DWIDTH 2 0
BBX 2 4 0 -1
BITMAP
01
03
01
02
ENDCHAR
STARTCHAR U+0050
ENCODING 80
SWIDTH 500 0
DWIDTH 2 0
BBX 2 4 0 -1
BITMAP
02
03
01
03
ENDCHAR
STARTCHAR U+0051
ENCODING 81
SWIDTH 500 0
DWIDTH 2 0
BBX 2 4 0 -1
BITMAP
00
00
01
02
ENDCHAR
STARTCHAR U+0052
ENCODING 82
SWIDTH 500 0
DWIDTH 2 0
BBX 2 4 0 -1
BITMAP
00
00
01
00
ENDCHAR
STARTCHAR U+0053
ENCODING 83
SWIDTH 500 0
DWIDTH 2 0
BBX 2 4 0 -1
BITMAP
00
00
00
02
ENDCHAR
STARTCHAR U+0054
ENCODING 84
SWIDTH 500 0
DWIDTH 2 0
BBX 2 4 0 -1
BITMAP
02
01
00
02
ENDCHAR
STARTCHAR U+0055
ENCODING 85
SWIDTH 500 0
DWIDTH 2 0
BBX 2 4 0 -1
BITMAP
03
02
00
03
ENDCHAR
STARTCHAR U+0056
ENCODING 86
SWIDTH 500 0
DWIDTH 2 0
BBX 2 4 0 -1
BITMAP
00
03
00
01
ENDCHAR
STARTCHAR U+0057
ENCODING 87
SWIDTH 500 0
DWIDTH 2 0
BBX 2 4 0 -1
BITMAP
01
00
01
00
ENDCHAR
STARTCHAR U+0058
ENCODING 88
SWIDTH 500 0
DWIDTH 2 0
BBX 2 4 0 -1
BITMAP
01
00
03
03
ENDCHAR
STARTCHAR U+0059
ENCODING 89
SWIDTH 500 0
DWIDTH 2 0
BBX 2 4 0 -1
BITMAP
02
01
02
00
ENDCHAR
STARTCHAR U+005A
ENCODING 90
SWIDTH 500 0
DWIDTH 2 0
BBX 2 4 0 -1
BITMAP
03
02
01
00
ENDCHAR
STARTCHAR U+005B
ENCODING 91
SWIDTH 500 0
DWIDTH 2 0
BBX 2 4 0 -1
BITMAP
00
01
03
01
ENDCHAR
STARTCHAR U+005C
ENCODING 92
SWIDTH 500 0
DWIDTH 2 0
BBX 2 4 0 -1
BITMAP
03
03
00
00
ENDCHAR
STARTCHAR U+005D
ENCODING 93
SWIDTH 500 0
DWIDTH 2 0
BBX 2 4 0 -1
BITMAP
01
00
00
02
ENDCHAR
STARTCHAR U+005E
ENCODING 94
SWIDTH 500 0
DWIDTH 2 0
BBX 2 4 0 -1
BITMAP
01
02
01
00
ENDCHAR
STARTCHAR U+005F
ENCODING 95
SWIDTH 500 0
DWIDTH 2 0
BBX 2 4 0 -1
BITMAP
00
02
01
02
ENDCHAR
STARTCHAR U+0060
ENCODING 96
SWIDTH 500 0
DWIDTH 2 0
BBX 2 4 0 -1
BITMAP
02
03
00
02
ENDCHAR
STARTCHAR U+0061
ENCODING 97
SWIDTH 500 0
DWIDTH 2 0
BBX 2 4 0 -1
BITMAP
03
01
02
03
ENDCHAR
STARTCHAR U+0062
ENCODING 98
SWIDTH 500 0
DWIDTH 2 0
BBX 2 4 0 -1
BITMAP
00
00
01
01
ENDCHAR
STARTCHAR U+0063
ENCODING 99
SWIDTH 500 0
DWIDTH 2 0
BBX 2 4 0 -1
BITMAP
02
03
03
02
ENDCHAR
STARTCHAR U+0064
ENCODING 100
SWIDTH 500 0
DWIDTH 2 0
BBX 2 4 0 -1
BITMAP
03
01
01
02
ENDCHAR
STARTCHAR U+0065
ENCODING 101
SWIDTH 500 0
DWIDTH 2 0
BBX 2 4 0 -1
BITMAP
01
02
03
00
ENDCHAR
STARTCHAR U+0066
ENCODING 102
SWIDTH 500 0
DWIDTH 2 0
BBX 2 4 0 -1
BITMAP
00
01
03
00
ENDCHAR
STARTCHAR U+0067
ENCODING 103
SWIDTH 500 0
DWIDTH 2 0
BBX 2 4 0 -1
BITMAP
02
02
02
01
ENDCHAR
STARTCHAR U+0068
ENCODING 104
SWIDTH 500 0
DWIDTH 2 0
BBX 2 4 0 -1
BITMAP
01
01
00
02
ENDCHAR
STARTCHAR U+0069
ENCODING 105
SWIDTH 500 0
DWIDTH 2 0
BBX 2 4 0 -1
BITMAP
01
02
01
03
ENDCHAR
STARTCHAR U+006A
ENCODING 106
SWIDTH 500 0
DWIDTH 2 0
BBX 2 4 0 -1
BITMAP
00
00
03
00
ENDCHAR
STARTCHAR U+006B
ENCODING 107
SWIDTH 500 0
DWIDTH 2 0
BBX 2 4 0 -1
BITMAP
02
03
00
01
ENDCHAR
STARTCHAR U+006C
ENCODING 108
SWIDTH 500 0
DWIDTH 2 0
BBX 2 4 0 -1
BITMAP
00
03
03
02
ENDCHAR
STARTCHAR U+006D
ENCODING 109
SWIDTH 500 0
DWIDTH 2 0
BBX 2 4 0 -1
BITMAP
02
01
02
01
ENDCHAR
STARTCHAR U+006E
ENCODING 110
SWIDTH 500 0
DWIDTH 2 0
BBX 2 4 0 -1
BITMAP
00
03
03
02
ENDCHAR
STARTCHAR U+006F
ENCODING 111
SWIDTH 500 0
DWIDTH 2 0
BBX 2 4 0 -1
BITMAP
01
00
03
03
ENDCHAR
STARTCHAR U+0070
ENCODING 112
SWIDTH 500 0
DWIDTH 2 0
BBX 2 4 0 -1
BITMAP
02
00
03
00
ENDCHAR
STARTCHAR U+0071
ENCODING 113
SWIDTH 500 0
DWIDTH 2 0
BBX 2 4 0 -1
BITMAP
01
00
03
02
ENDCHAR
STARTCHAR U+0072
ENCODING 114
SWIDTH 500 0
DWIDTH 2 0
BBX 2 4 0 -1
BITMAP
02
01
02
00
ENDCHAR
STARTCHAR U+0073
ENCODING 115
SWIDTH 500 0
DWIDTH 2 0
BBX 2 4 0 -1
BITMAP
03
01
02
03
ENDCHAR
STARTCHAR U+0074
ENCODING 116
SWIDTH 500 0
DWIDTH 2 0
BBX 2 4 0 -1
BITMAP
02
01
02
00
ENDCHAR
STARTCHAR U+0075
ENCODING 117
SWIDTH 500 0
DWIDTH 2 0
BBX 2 4 0 -1
BITMAP
00
01
01
01
ENDCHAR
STARTCHAR U+0076
ENCODING 118
SWIDTH 500 0
DWIDTH 2 0
BBX 2 4 0 -1
BITMAP
00
01
02
03
ENDCHAR
STARTCHAR U+0077
ENCODING 119
SWIDTH 500 0
DWIDTH 2 0
BBX 2 4 0 -1
BITMAP
03
03
03
01
ENDCHAR
STARTCHAR U+0078
ENCODING 120
SWIDTH 500 0
DWIDTH 2 0
BBX 2 4 0 -1
BITMAP
00
02
01
02
ENDCHAR
STARTCHAR U+0079
ENCODING 121
SWIDTH 500 0
DWIDTH 2 0
BBX 2 4 0 -1
BITMAP
03
00
00
01
ENDCHAR
STARTCHAR U+007A
ENCODING 122
SWIDTH 500 0
DWIDTH 2 0
BBX 2 4 0 -1
BITMAP
01
00
01
03
ENDCHAR
STARTCHAR U+007B
ENCODING 123
SWIDTH 500 0
DWIDTH 2 0
BBX 2 4 0 -1
BITMAP
00
02
01
00
ENDCHAR
STARTCHAR U+007C
ENCODING 124
SWIDTH 500 0
DWIDTH 2 0
BBX 2 4 0 -1
BITMAP
01
03
00
00
ENDCHAR
STARTCHAR U+007D
ENCODING 125
SWIDTH 500 0
DWIDTH 2 0
BBX 2 4 0 -1
BITMAP
00
02
02
02
ENDCHAR
STARTCHAR U+007E
ENCODING 126
SWIDTH 500 0
DWIDTH 2 0
BBX 2 4 0 -1
BITMAP
00
03
02
00
ENDCHAR
STARTCHAR U+007F
ENCODING 127
SWIDTH 500 0
DWIDTH 2 0
BBX 2 4 0 -1
BITMAP
00
00
00
00
ENDCHAR
STARTCHAR U+00A0
ENCODING 160
SWIDTH 500 0
DWIDTH 2 0
BBX 2 4 0 -1
BITMAP
00
00
00
00
ENDCHAR
STARTCHAR U+2500
ENCODING 9472
SWIDTH 500 0
DWIDTH 2 0
BBX 2 4 0 -1
BITMAP
02
02
01
00
ENDCHAR
STARTCHAR U+2501
ENCODING 9473
SWIDTH 500 0
DWIDTH 2 0
BBX 2 4 0 -1
BITMAP
01
03
00
01
ENDCHAR
STARTCHAR U+2502
ENCODING 9474
SWIDTH 500 0
DWIDTH 2 0
BBX 2 4 0 -1
BITMAP
00
00
03
01
ENDCHAR
STARTCHAR U+2503
ENCODING 9475
SWIDTH 500 0
DWIDTH 2 0
BBX 2 4 0 -1
BITMAP
02
02
00
03
ENDCHAR
STARTCHAR U+2504
ENCODING 9476
SWIDTH 500 0
DWIDTH 2 0
BBX 2 4 0 -1
BITMAP
00
02
02
03
ENDCHAR
STARTCHAR U+2505
ENCODING 9477
SWIDTH 500 0
DWIDTH 2 0
BBX 2 4 0 -1
BITMAP
02
03
03
01
ENDCHAR
STARTCHAR U+2506
ENCODING 9478
SWIDTH 500 0
DWIDTH 2 0
BBX 2 4 0 -1
BITMAP
00
01
02
02
ENDCHAR
STARTCHAR U+2507
ENCODING 9479
SWIDTH 500 0
DWIDTH 2 0
BBX 2 4 0 -1
BITMAP
01
01
03
00
ENDCHAR
STARTCHAR U+2508
ENCODING 9480
SWIDTH 500 0
DWIDTH 2 0
BBX 2 4 0 -1
BITMAP
02
02
02
01
ENDCHAR
STARTCHAR U+2509
ENCODING 9481
SWIDTH 500 0
DWIDTH 2 0
BBX 2 4 0 -1
BITMAP
03
01
00
00
ENDCHAR
STARTCHAR U+250A
ENCODING 9482
SWIDTH 500 0
DWIDTH 2 0
BBX 2 4 0 -1
BITMAP
03
03
03
02
ENDCHAR
STARTCHAR U+250B
ENCODING 9483
SWIDTH 500 0
DWIDTH 2 0
BBX 2 4 0 -1
BITMAP
01
00
02
00
ENDCHAR
STARTCHAR U+250C
ENCODING 9484
SWIDTH 500 0
DWIDTH 2 0
BBX 2 4 0 -1
BITMAP
00
01
02
01
ENDCHAR
STARTCHAR U+250D
ENCODING 9485
SWIDTH 500 0
DWIDTH 2 0
BBX 2 4 0 -1
BITMAP
01
00
03
01
ENDCHAR
STARTCHAR U+250E
ENCODING 9486
SWIDTH 500 0
DWIDTH 2 0
BBX 2 4 0 -1
BITMAP
00
03
01
01
ENDCHAR
STARTCHAR U+250F
ENCODING 9487
SWIDTH 500 0
DWIDTH 2 0
BBX 2 4 0 -1
BITMAP
02
02
03
03
ENDCHAR
STARTCHAR U+2510
ENCODING 9488
SWIDTH 500 0
DWIDTH 2 0
BBX 2 4 0 -1
BITMAP
03
02
02
02
ENDCHAR
STARTCHAR U+2511
ENCODING 9489
SWIDTH 500 0
DWIDTH 2 0
BBX 2 4 0 -1
BITMAP
03
00
03
01
ENDCHAR
STARTCHAR U+2512
ENCODING 9490
SWIDTH 500 0
DWIDTH 2 0
BBX 2 4 0 -1
BITMAP
02
02
03
02
ENDCHAR
STARTCHAR U+2513
ENCODING 9491
SWIDTH 500 0
DWIDTH 2 0
BBX 2 4 0 -1
BITMAP
01
02
02
01
ENDCHAR
STARTCHAR U+2514
ENCODING 9492
SWIDTH 500 0
DWIDTH 2 0
BBX 2 4 0 -1
BITMAP
00
01
03
03
ENDCHAR
STARTCHAR U+2515
ENCODING 9493
SWIDTH 500 0
DWIDTH 2 0
BBX 2 4 0 -1
BITMAP
02
03
02
02
ENDCHAR
STARTCHAR U+2516
ENCODING 9494
SWIDTH 500 0
DWIDTH 2 0
BBX 2 4 0 -1
BITMAP
02
00
01
01
ENDCHAR
STARTCHAR U+2517
ENCODING 9495
SWIDTH 500 0
DWIDTH 2 0
BBX 2 4 0 -1
BITMAP
03
02
01
01
ENDCHAR
STARTCHAR U+2518
ENCODING 9496
SWIDTH 500 0
DWIDTH 2 0
BBX 2 4 0 -1
BITMAP
02
02
01
02
ENDCHAR
STARTCHAR U+2519
ENCODING 9497
SWIDTH 500 0
DWIDTH 2 0
BBX 2 4 0 -1
BITMAP
02
01
03
03
ENDCHAR
STARTCHAR U+251A
ENCODING 9498
SWIDTH 500 0
DWIDTH 2 0
BBX 2 4 0 -1
BITMAP
01
01
01
00
ENDCHAR
STARTCHAR U+251B
ENCODING 9499
SWIDTH 500 0
DWIDTH 2 0
BBX 2 4 0 -1
BITMAP
00
00
00
00
ENDCHAR
STARTCHAR U+251C
ENCODING 9500
SWIDTH 500 0
DWIDTH 2 0
BBX 2 4 0 -1
BITMAP
00
02
00
03
ENDCHAR
STARTCHAR U+251D
ENCODING 9501
SWIDTH 500 0
DWIDTH 2 0
BBX 2 4 0 -1
BITMAP
00
03
00
03
ENDCHAR
STARTCHAR U+251E
ENCODING 9502
SWIDTH 500 0
DWIDTH 2 0
BBX 2 4 0 -1
BITMAP
02
01
03
02
ENDCHAR
STARTCHAR U+251F
ENCODING 9503
SWIDTH 500 0
DWIDTH 2 0
BBX 2 4 0 -1
BITMAP
00
01
03
00
ENDCHAR
STARTCHAR U+2520
ENCODING 9504
SWIDTH 500 0
DWIDTH 2 0
BBX 2 4 0 -1
BITMAP
00
01
03
02
ENDCHAR
STARTCHAR U+2521
ENCODING 9505
SWIDTH 500 0
DWIDTH 2 0
BBX 2 4 0 -1
BITMAP
00
03
00
01
ENDCHAR
STARTCHAR U+2522
ENCODING 9506
SWIDTH 500 0
DWIDTH 2 0
BBX 2 4 0 -1
BITMAP
02
03
00
03
ENDCHAR
STARTCHAR U+2523
ENCODING 9507
SWIDTH 500 0
DWIDTH 2 0
BBX 2 4 0 -1
BITMAP
02
01
01
00
ENDCHAR
STARTCHAR U+2524
ENCODING 9508
SWIDTH 500 0
DWIDTH 2 0
BBX 2 4 0 -1
BITMAP
01
03
02
02
ENDCHAR
STARTCHAR U+2525
ENCODING 9509
SWIDTH 500 0
DWIDTH 2 0
BBX 2 4 0 -1
BITMAP
03
02
00
00
ENDCHAR
STARTCHAR U+2526
ENCODING 9510
SWIDTH 500 0
DWIDTH 2 0
BBX 2 4 0 -1
BITMAP
01
02
01
02
ENDCHAR
STARTCHAR U+2527
ENCODING 9511
SWIDTH 500 0
DWIDTH 2 0
BBX 2 4 0 -1
BITMAP
02
02
01
01
ENDCHAR
STARTCHAR U+2528
ENCODING 9512
SWIDTH 500 0
DWIDTH 2 0
BBX 2 4 0 -1
BITMAP
00
03
01
01
ENDCHAR
STARTCHAR U+2529
ENCODING 9513
SWIDTH 500 0
DWIDTH 2 0
BBX 2 4 0 -1
BITMAP
03
03
00
01
ENDCHAR
STARTCHAR U+252A
ENCODING 9514
SWIDTH 500 0
DWIDTH 2 0
BBX 2 4 0 -1
BITMAP
03
02
03
00
ENDCHAR
STARTCHAR U+252B
ENCODING 9515
SWIDTH 500 0
DWIDTH 2 0
BBX 2 4 0 -1
BITMAP
00
03
01
00
ENDCHAR
STARTCHAR U+252C
ENCODING 9516
SWIDTH 500 0
DWIDTH 2 0
BBX 2 4 0 -1
BITMAP
00
00
02
01
ENDCHAR
STARTCHAR U+252D
ENCODING 9517
SWIDTH 500 0
DWIDTH 2 0
BBX 2 4 0 -1
BITMAP
03
02
03
02
ENDCHAR
STARTCHAR U+252E
ENCODING 9518
SWIDTH 500 0
DWIDTH 2 0
BBX 2 4 0 -1
BITMAP
01
02
00
03
ENDCHAR
STARTCHAR U+252F
ENCODING 9519
SWIDTH 500 0
DWIDTH 2 0
BBX 2 4 0 -1
BITMAP
00
03
02
00
ENDCHAR
STARTCHAR U+2530
ENCODING 9520
SWIDTH 500 0
DWIDTH 2 0
BBX 2 4 0 -1
BITMAP
00
00
01
02
ENDCHAR
STARTCHAR U+2531
ENCODING 9521
SWIDTH 500 0
DWIDTH 2 0
BBX 2 4 0 -1
BITMAP
00
02
01
02
ENDCHAR
STARTCHAR U+2532
ENCODING 9522
SWIDTH 500 0
DWIDTH 2 0
BBX 2 4 0 -1
BITMAP
01
01
00
00
ENDCHAR
STARTCHAR U+2533
ENCODING 9523
SWIDTH 500 0
DWIDTH 2 0
BBX 2 4 0 -1
BITMAP
03
00
02
03
ENDCHAR
STARTCHAR U+2534
ENCODING 9524
SWIDTH 500 0
DWIDTH 2 0
BBX 2 4 0 -1
BITMAP
00
02
03
01
ENDCHAR
STARTCHAR U+2535
ENCODING 9525
SWIDTH 500 0
DWIDTH 2 0
BBX 2 4 0 -1
BITMAP
03
03
02
03
ENDCHAR
STARTCHAR U+2536
ENCODING 9526
SWIDTH 500 0
DWIDTH 2 0
BBX 2 4 0 -1
BITMAP
03
03
00
03
ENDCHAR
STARTCHAR U+2537
ENCODING 9527
SWIDTH 500 0
DWIDTH 2 0
BBX 2 4 0 -1
BITMAP
00
03
03
01
ENDCHAR
STARTCHAR U+2538
ENCODING 9528
SWIDTH 500 0
DWIDTH 2 0
BBX 2 4 0 -1
BITMAP
03
01
03
00
ENDCHAR
STARTCHAR U+2539
ENCODING 9529
SWIDTH 500 0
DWIDTH 2 0
BBX 2 4 0 -1
BITMAP
00
01
01
01
ENDCHAR
STARTCHAR U+253A
ENCODING 9530
SWIDTH 500 0
DWIDTH 2 0
BBX 2 4 0 -1
BITMAP
00
00
02
01
ENDCHAR
STARTCHAR U+253B
ENCODING 9531
SWIDTH 500 0
DWIDTH 2 0
BBX 2 4 0 -1
BITMAP
02
02
02
02
ENDCHAR
STARTCHAR U+253C
ENCODING 9532
SWIDTH 500 0
DWIDTH 2 0
BBX 2 4 0 -1
BITMAP
02
03
01
01
ENDCHAR
STARTCHAR U+253D
ENCODING 9533
SWIDTH 500 0
DWIDTH 2 0
BBX 2 4 0 -1
BITMAP
01
01
01
01
ENDCHAR
STARTCHAR U+253E
ENCODING 9534
SWIDTH 500 0
DWIDTH 2 0
BBX 2 4 0 -1
BITMAP
00
00
01
00
ENDCHAR
STARTCHAR U+253F
ENCODING 9535
SWIDTH 500 0
DWIDTH 2 0
BBX 2 4 0 -1
BITMAP
00
02
03
01
ENDCHAR
STARTCHAR U+2540
ENCODING 9536
SWIDTH 500 0
DWIDTH 2 0
BBX 2 4 0 -1
BITMAP
03
01
00
02
ENDCHAR
STARTCHAR U+2541
ENCODING 9537
SWIDTH 500 0
DWIDTH 2 0
BBX 2 4 0 -1
BITMAP
01
00
03
00
ENDCHAR
STARTCHAR U+2542
ENCODING 9538
SWIDTH 500 0
DWIDTH 2 0
BBX 2 4 0 -1
BITMAP
02
03
02
01
ENDCHAR
STARTCHAR U+2543
ENCODING 9539
SWIDTH 500 0
DWIDTH 2 0
BBX 2 4 0 -1
BITMAP
00
02
02
01
ENDCHAR
STARTCHAR U+2544
ENCODING 9540
SWIDTH 500 0
DWIDTH 2 0
BBX 2 4 0 -1
BITMAP
01
03
03
03
ENDCHAR
STARTCHAR U+2545
ENCODING 9541
SWIDTH 500 0
DWIDTH 2 0
BBX 2 4 0 -1
BITMAP
01
03
02
02
ENDCHAR
STARTCHAR U+2546
ENCODING 9542
SWIDTH 500 0
DWIDTH 2 0
BBX 2 4 0 -1
BITMAP
00
03
01
01
ENDCHAR
STARTCHAR U+2547
ENCODING 9543
SWIDTH 500 0
DWIDTH 2 0
BBX 2 4 0 -1
BITMAP
00
01
00
02
ENDCHAR
STARTCHAR U+2548
ENCODING 9544
SWIDTH 500 0
DWIDTH 2 0
BBX 2 4 0 -1
BITMAP
02
03
02
02
ENDCHAR
STARTCHAR U+2549
ENCODING 9545
SWIDTH 500 0
DWIDTH 2 0
BBX 2 4 0 -1
BITMAP
02
00
01
00
ENDCHAR
STARTCHAR U+254A
ENCODING 9546
SWIDTH 500 0
DWIDTH 2 0
BBX 2 4 0 -1
BITMAP
00
03
00
01
ENDCHAR
STARTCHAR U+254B
ENCODING 9547
SWIDTH 500 0
DWIDTH 2 0
BBX 2 4 0 -1
BITMAP
02
01
02
03
ENDCHAR
STARTCHAR U+254C
ENCODING 9548
SWIDTH 500 0
DWIDTH 2 0
BBX 2 4 0 -1
BITMAP
02
03
00
01
ENDCHAR
STARTCHAR U+254D
ENCODING 9549
SWIDTH 500 0
DWIDTH 2 0
BBX 2 4 0 -1
BITMAP
01
02
02
02
ENDCHAR
STARTCHAR U+254E
ENCODING 9550
SWIDTH 500 0
DWIDTH 2 0
BBX 2 4 0 -1
BITMAP
03
00
03
03
ENDCHAR
STARTCHAR U+254F
ENCODING 9551
SWIDTH 500 0
DWIDTH 2 0
BBX 2 4 0 -1
BITMAP
00
01
03
01
ENDCHAR
STARTCHAR U+2550
ENCODING 9552
SWIDTH 500 0
DWIDTH 2 0
BBX 2 4 0 -1
BITMAP
03
03
02
00
ENDCHAR
STARTCHAR U+2551
ENCODING 9553
SWIDTH 500 0
DWIDTH 2 0
BBX 2 4 0 -1
BITMAP
02
01
03
00
ENDCHAR
STARTCHAR U+2552
ENCODING 9554
SWIDTH 500 0
DWIDTH 2 0
BBX 2 4 0 -1
BITMAP
00
00
00
00
ENDCHAR
STARTCHAR U+2553
ENCODING 9555
SWIDTH 500 0
DWIDTH 2 0
BBX 2 4 0 -1
BITMAP
03
02
00
00
ENDCHAR
STARTCHAR U+2554
ENCODING 9556
SWIDTH 500 0
DWIDTH 2 0
BBX 2 4 0 -1
BITMAP
02
01
00
01
ENDCHAR
STARTCHAR U+2555
ENCODING 9557
SWIDTH 500 0
DWIDTH 2 0
BBX 2 4 0 -1
BITMAP
00
03
01
01
ENDCHAR
STARTCHAR U+2556
ENCODING 9558
SWIDTH 500 0
DWIDTH 2 0
BBX 2 4 0 -1
BITMAP
01
02
00
02
ENDCHAR
STARTCHAR U+2557
ENCODING 9559
SWIDTH 500 0
DWIDTH 2 0
BBX 2 4 0 -1
BITMAP
00
03
02
03
ENDCHAR
STARTCHAR U+2558
ENCODING 9560
SWIDTH 500 0
DWIDTH 2 0
BBX 2 4 0 -1
BITMAP
02
03
02
03
ENDCHAR
STARTCHAR U+2559
ENCODING 9561
SWIDTH 500 0
DWIDTH 2 0
BBX 2 4 0 -1
BITMAP
01
01
02
03
ENDCHAR
STARTCHAR U+255A
ENCODING 9562
SWIDTH 500 0
DWIDTH 2 0
BBX 2 4 0 -1
BITMAP
01
02
03
03
ENDCHAR
STARTCHAR U+255B
ENCODING 9563
SWIDTH 500 0
DWIDTH 2 0
BBX 2 4 0 -1
BITMAP
03
02
01
03
ENDCHAR
STARTCHAR U+255C
ENCODING 9564
SWIDTH 500 0
DWIDTH 2 0
BBX 2 4 0 -1
BITMAP
03
02
01
02
ENDCHAR
STARTCHAR U+255D
ENCODING 9565
SWIDTH 500 0
DWIDTH 2 0
BBX 2 4 0 -1
BITMAP
01
00
01
00
ENDCHAR
STARTCHAR U+255E
ENCODING 9566
SWIDTH 500 0
DWIDTH 2 0
BBX 2 4 0 -1
BITMAP
00
01
02
00
ENDCHAR
STARTCHAR U+255F
ENCODING 9567
SWIDTH 500 0
DWIDTH 2 0
BBX 2 4 0 -1
BITMAP
01
02
00
03
ENDCHAR
STARTCHAR U+2560
ENCODING 9568
SWIDTH 500 0
DWIDTH 2 0
BBX 2 4 0 -1
BITMAP
03
00
02
03
ENDCHAR
STARTCHAR U+2561
ENCODING 9569
SWIDTH 500 0
DWIDTH 2 0
BBX 2 4 0 -1
BITMAP
01
01
01
03
ENDCHAR
STARTCHAR U+2562
ENCODING 9570
SWIDTH 500 0
DWIDTH 2 0
BBX 2 4 0 -1
BITMAP
01
00
01
03
ENDCHAR
STARTCHAR U+2563
ENCODING 9571
SWIDTH 500 0
DWIDTH 2 0
BBX 2 4 0 -1
BITMAP
01
00
03
01
ENDCHAR
STARTCHAR U+2564
ENCODING 9572
SWIDTH 500 0
DWIDTH 2 0
BBX 2 4 0 -1
BITMAP
03
02
01
00
ENDCHAR
STARTCHAR U+2565
ENCODING 9573
SWIDTH 500 0
DWIDTH 2 0
BBX 2 4 0 -1
BITMAP
01
02
03
02
ENDCHAR
STARTCHAR U+2566
ENCODING 9574
SWIDTH 500 0
DWIDTH 2 0
BBX 2 4 0 -1
BITMAP
03
02
02
02
ENDCHAR
STARTCHAR U+2567
ENCODING 9575
SWIDTH 500 0
DWIDTH 2 0
BBX 2 4 0 -1
BITMAP
02
03
01
03
ENDCHAR
STARTCHAR U+2568
ENCODING 9576
SWIDTH 500 0
DWIDTH 2 0
BBX 2 4 0 -1
BITMAP
03
03
02
03
ENDCHAR
STARTCHAR U+2569
ENCODING 9577
SWIDTH 500 0
DWIDTH 2 0
BBX 2 4 0 -1
BITMAP
03
00
02
01
ENDCHAR
STARTCHAR U+256A
ENCODING 9578
SWIDTH 500 0
DWIDTH 2 0
BBX 2 4 0 -1
BITMAP
02
03
00
00
ENDCHAR
STARTCHAR U+256B
ENCODING 9579
SWIDTH 500 0
DWIDTH 2 0
BBX 2 4 0 -1
BITMAP
01
00
00
00
ENDCHAR
STARTCHAR U+256C
ENCODING 9580
SWIDTH 500 0
DWIDTH 2 0
BBX 2 4 0 -1
BITMAP
00
00
03
01
ENDCHAR
STARTCHAR U+256D
ENCODING 9581
SWIDTH 500 0
DWIDTH 2 0
BBX 2 4 0 -1
BITMAP
03
00
00
03
ENDCHAR
STARTCHAR U+256E
ENCODING 9582
SWIDTH 500 0
DWIDTH 2 0
BBX 2 4 0 -1
BITMAP
03
00
02
00
ENDCHAR
STARTCHAR U+256F
ENCODING 9583
SWIDTH 500 0
DWIDTH 2 0
BBX 2 4 0 -1
BITMAP
03
00
02
00
ENDCHAR
STARTCHAR U+2570
ENCODING 9584
SWIDTH 500 0
DWIDTH 2 0
BBX 2 4 0 -1
BITMAP
03
03
02
00
ENDCHAR
STARTCHAR U+2571
ENCODING 9585
SWIDTH 500 0
DWIDTH 2 0
BBX 2 4 0 -1
BITMAP
01
02
01
03
ENDCHAR
STARTCHAR U+2572
ENCODING 9586
SWIDTH 500 0
DWIDTH 2 0
BBX 2 4 0 -1
BITMAP
00
02
01
01
ENDCHAR
STARTCHAR U+2573
ENCODING 9587
SWIDTH 500 0
DWIDTH 2 0
BBX 2 4 0 -1
BITMAP
01
01
01
00
ENDCHAR
STARTCHAR U+2574
ENCODING 9588
SWIDTH 500 0
DWIDTH 2 0
BBX 2 4 0 -1
BITMAP
01
01
03
03
ENDCHAR
STARTCHAR U+2575
ENCODING 9589
SWIDTH 500 0
DWIDTH 2 0
BBX 2 4 0 -1
BITMAP
02
02
02
00
ENDCHAR
STARTCHAR U+2576
ENCODING 9590
SWIDTH 500 0
DWIDTH 2 0
BBX 2 4 0 -1
BITMAP
00
01
02
01
ENDCHAR
STARTCHAR U+2577
ENCODING 9591
SWIDTH 500 0
DWIDTH 2 0
BBX 2 4 0 -1
BITMAP
00
01
00
02
ENDCHAR
STARTCHAR U+2578
ENCODING 9592
SWIDTH 500 0
DWIDTH 2 0
BBX 2 4 0 -1
BITMAP
03
03
03
01
ENDCHAR
STARTCHAR U+2579
ENCODING 9593
SWIDTH 500 0
DWIDTH 2 0
BBX 2 4 0 -1
BITMAP
01
03
03
03
ENDCHAR
STARTCHAR U+257A
ENCODING 9594
SWIDTH 500 0
DWIDTH 2 0
BBX 2 4 0 -1
BITMAP
03
01
00
03
ENDCHAR
STARTCHAR U+257B
ENCODING 9595
SWIDTH 500 0
DWIDTH 2 0
BBX 2 4 0 -1
BITMAP
01
03
01
02
ENDCHAR
STARTCHAR U+257C
ENCODING 9596
SWIDTH 500 0
DWIDTH 2 0
BBX 2 4 0 -1
BITMAP
02
03
01
00
ENDCHAR
STARTCHAR U+257D
ENCODING 9597
SWIDTH 500 0
DWIDTH 2 0
BBX 2 4 0 -1
BITMAP
02
03
01
01
ENDCHAR
STARTCHAR U+257E
ENCODING 9598
SWIDTH 500 0
DWIDTH 2 0
BBX 2 4 0 -1
BITMAP
02
00
00
03
ENDCHAR
STARTCHAR U+257F
ENCODING 9599
SWIDTH 500 0
DWIDTH 2 0
BBX 2 4 0 -1
BITMAP
01
01
02
01
ENDCHAR
STARTCHAR U+2580
ENCODING 9600
SWIDTH 500 0
DWIDTH 2 0
BBX 2 4 0 -1
BITMAP
C0
C0
00
00
ENDCHAR
STARTCHAR U+2581
ENCODING 9601
SWIDTH 500 0
DWIDTH 2 0
BBX 2 4 0 -1
BITMAP
03
00
01
03
ENDCHAR
STARTCHAR U+2582
ENCODING 9602
SWIDTH 500 0
DWIDTH 2 0
BBX 2 4 0 -1
BITMAP
00
00
03
00
ENDCHAR
STARTCHAR U+2583
ENCODING 9603
SWIDTH 500 0
DWIDTH 2 0
BBX 2 4 0 -1
BITMAP
03
00
01
01
ENDCHAR
STARTCHAR U+2584
ENCODING 9604
SWIDTH 500 0
DWIDTH 2 0
BBX 2 4 0 -1
BITMAP
00
00
C0
C0
ENDCHAR
STARTCHAR U+2585
ENCODING 9605
SWIDTH 500 0
DWIDTH 2 0
BBX 2 4 0 -1
BITMAP
00
03
01
02
ENDCHAR
STARTCHAR U+2586
ENCODING 9606
SWIDTH 500 0
DWIDTH 2 0
BBX 2 4 0 -1
BITMAP
02
01
01
02
ENDCHAR
STARTCHAR U+2587
ENCODING 9607
SWIDTH 500 0
DWIDTH 2 0
BBX 2 4 0 -1
BITMAP
03
01
00
01
ENDCHAR
STARTCHAR U+2588
ENCODING 9608
SWIDTH 500 0
DWIDTH 2 0
BBX 2 4 0 -1
BITMAP
C0
C0
C0
C0
ENDCHAR
STARTCHAR U+2589
ENCODING 9609
SWIDTH 500 0
DWIDTH 2 0
BBX 2 4 0 -1
BITMAP
02
03
01
00
ENDCHAR
STARTCHAR U+258A
ENCODING 9610
SWIDTH 500 0
DWIDTH 2 0
BBX 2 4 0 -1
BITMAP
00
01
01
02
ENDCHAR
STARTCHAR U+258B
ENCODING 9611
SWIDTH 500 0
DWIDTH 2 0
BBX 2 4 0 -1
BITMAP
00
01
03
01
ENDCHAR
STARTCHAR U+258C
ENCODING 9612
SWIDTH 500 0
DWIDTH 2 0
BBX 2 4 0 -1
BITMAP
02
01
03
03
ENDCHAR
STARTCHAR U+258D
ENCODING 9613
SWIDTH 500 0
DWIDTH 2 0
BBX 2 4 0 -1
BITMAP
02
00
02
00
ENDCHAR
STARTCHAR U+258E
ENCODING 9614
SWIDTH 500 0
DWIDTH 2 0
BBX 2 4 0 -1
BITMAP
02
02
01
00
ENDCHAR
STARTCHAR U+258F
ENCODING 9615
SWIDTH 500 0
DWIDTH 2 0
BBX 2 4 0 -1
BITMAP
03
01
03
00
ENDCHAR
STARTCHAR U+2590
ENCODING 9616
SWIDTH 500 0
DWIDTH 2 0
BBX 2 4 0 -1
BITMAP
01
01
00
03
ENDCHAR
STARTCHAR U+2591
ENCODING 9617
SWIDTH 500 0
DWIDTH 2 0
BBX 2 4 0 -1
BITMAP
00
03
02
01
ENDCHAR
STARTCHAR U+2592
ENCODING 9618
SWIDTH 500 0
DWIDTH 2 0
BBX 2 4 0 -1
BITMAP
00
01
02
00
ENDCHAR
STARTCHAR U+2593
ENCODING 9619
SWIDTH 500 0
DWIDTH 2 0
BBX 2 4 0 -1
BITMAP
03
01
01
01
ENDCHAR
STARTCHAR U+2594
ENCODING 9620
SWIDTH 500 0
DWIDTH 2 0
BBX 2 4 0 -1
BITMAP
03
03
02
01
ENDCHAR
STARTCHAR U+2595
ENCODING 9621
SWIDTH 500 0
DWIDTH 2 0
BBX 2 4 0 -1
BITMAP
02
02
02
02
ENDCHAR
STARTCHAR U+2596
ENCODING 9622
SWIDTH 500 0
DWIDTH 2 0
BBX 2 4 0 -1
BITMAP
01
01
01
03
ENDCHAR
STARTCHAR U+2597
ENCODING 9623
SWIDTH 500 0
DWIDTH 2 0
BBX 2 4 0 -1
BITMAP
02
01
01
02
ENDCHAR
STARTCHAR U+2598
ENCODING 9624
SWIDTH 500 0
DWIDTH 2 0
BBX 2 4 0 -1
BITMAP
01
03
03
00
ENDCHAR
STARTCHAR U+2599
ENCODING 9625
SWIDTH 500 0
DWIDTH 2 0
BBX 2 4 0 -1
BITMAP
03
00
01
01
ENDCHAR
STARTCHAR U+259A
ENCODING 9626
SWIDTH 500 0
DWIDTH 2 0
BBX 2 4 0 -1
BITMAP
03
02
01
03
ENDCHAR
STARTCHAR U+259B
ENCODING 9627
SWIDTH 500 0
DWIDTH 2 0
BBX 2 4 0 -1
BITMAP
01
01
00
01
ENDCHAR
STARTCHAR U+259C
ENCODING 9628
SWIDTH 500 0
DWIDTH 2 0
BBX 2 4 0 -1
BITMAP
03
00
02
01
ENDCHAR
STARTCHAR U+259D
ENCODING 9629
SWIDTH 500 0
DWIDTH 2 0
BBX 2 4 0 -1
BITMAP
01
02
01
03
ENDCHAR
STARTCHAR U+259E
ENCODING 9630
SWIDTH 500 0
DWIDTH 2 0
BBX 2 4 0 -1
BITMAP
01
02
00
02
ENDCHAR
STARTCHAR U+259F
ENCODING 9631
SWIDTH 500 0
DWIDTH 2 0
BBX 2 4 0 -1
BITMAP
01
03
00
00
ENDCHAR
STARTCHAR U+EE00
ENCODING 60928
SWIDTH 500 0
DWIDTH 2 0
BBX 2 4 0 -1
BITMAP
00
00
00
00
ENDCHAR
STARTCHAR U+EE01
ENCODING 60929
SWIDTH 500 0
DWIDTH 2 0
BBX 2 4 0 -1
BITMAP
00
00
00
40
ENDCHAR
STARTCHAR U+EE02
ENCODING 60930
SWIDTH 500 0
DWIDTH 2 0
BBX 2 4 0 -1
BITMAP
00
00
00
80
ENDCHAR
STARTCHAR U+EE03
ENCODING 60931
SWIDTH 500 0
DWIDTH 2 0
BBX 2 4 0 -1
BITMAP
00
00
00
C0
ENDCHAR
STARTCHAR U+EE04
ENCODING 60932
SWIDTH 500 0
DWIDTH 2 0
BBX 2 4 0 -1
BITMAP
00
00
40
00
ENDCHAR
STARTCHAR U+EE05
ENCODING 60933
SWIDTH 500 0
DWIDTH 2 0
BBX 2 4 0 -1
BITMAP
00
00
40
40
ENDCHAR
STARTCHAR U+EE06
ENCODING 60934
SWIDTH 500 0
DWIDTH 2 0
BBX 2 4 0 -1
BITMAP
00
00
40
80
ENDCHAR
STARTCHAR U+EE07
ENCODING 60935
SWIDTH 500 0
DWIDTH 2 0
BBX 2 4 0 -1
BITMAP
00
00
40
C0
ENDCHAR
STARTCHAR U+EE08
ENCODING 60936
SWIDTH 500 0
DWIDTH 2 0
BBX 2 4 0 -1
BITMAP
00
00
80
00
ENDCHAR
STARTCHAR U+EE09
ENCODING 60937
SWIDTH 500 0
DWIDTH 2 0
BBX 2 4 0 -1
BITMAP
00
00
80
40
ENDCHAR
STARTCHAR U+EE0A
ENCODING 60938
SWIDTH 500 0
DWIDTH 2 0
BBX 2 4 0 -1
BITMAP
00
00
80
80
ENDCHAR
STARTCHAR U+EE0B
ENCODING 60939
SWIDTH 500 0
DWIDTH 2 0
BBX 2 4 0 -1
BITMAP
00
00
80
C0
ENDCHAR
STARTCHAR U+EE0C
ENCODING 60940
SWIDTH 500 0
DWIDTH 2 0
BBX 2 4 0 -1
BITMAP
00
00
C0
00
ENDCHAR
STARTCHAR U+EE0D
ENCODING 60941
SWIDTH 500 0
DWIDTH 2 0
BBX 2 4 0 -1
BITMAP
00
00
C0
40
ENDCHAR
STARTCHAR U+EE0E
ENCODING 60942
SWIDTH 500 0
DWIDTH 2 0
BBX 2 4 0 -1
BITMAP
00
00
C0
80
ENDCHAR
STARTCHAR U+EE0F
ENCODING 60943
SWIDTH 500 0
DWIDTH 2 0
BBX 2 4 0 -1
BITMAP
00
00
C0
C0
ENDCHAR
STARTCHAR U+EE10
ENCODING 60944
SWIDTH 500 0
DWIDTH 2 0
BBX 2 4 0 -1
BITMAP
00
40
00
00
ENDCHAR
STARTCHAR U+EE11
ENCODING 60945
SWIDTH 500 0
DWIDTH 2 0
BBX 2 4 0 -1
BITMAP
00
40
00
40
ENDCHAR
STARTCHAR U+EE12
ENCODING 60946
SWIDTH 500 0
DWIDTH 2 0
BBX 2 4 0 -1
BITMAP
00
40
00
80
ENDCHAR
STARTCHAR U+EE13
ENCODING 60947
SWIDTH 500 0
DWIDTH 2 0
BBX 2 4 0 -1
BITMAP
00
40
00
C0
ENDCHAR
STARTCHAR U+EE14
ENCODING 60948
SWIDTH 500 0
DWIDTH 2 0
BBX 2 4 0 -1
BITMAP
00
40
40
00
ENDCHAR
STARTCHAR U+EE15
ENCODING 60949
SWIDTH 500 0
DWIDTH 2 0
BBX 2 4 0 -1
BITMAP
00
40
40
40
ENDCHAR
STARTCHAR U+EE16
ENCODING 60950
SWIDTH 500 0
DWIDTH 2 0
BBX 2 4 0 -1
BITMAP
00
40
40
80
ENDCHAR
STARTCHAR U+EE17
ENCODING 60951
SWIDTH 500 0
DWIDTH 2 0
BBX 2 4 0 -1
BITMAP
00
40
40
C0
ENDCHAR
STARTCHAR U+EE18
ENCODING 60952
SWIDTH 500 0
DWIDTH 2 0
BBX 2 4 0 -1
BITMAP
00
40
80
00
ENDCHAR
STARTCHAR U+EE19
ENCODING 60953
SWIDTH 500 0
DWIDTH 2 0
BBX 2 4 0 -1
BITMAP
00
40
80
40
ENDCHAR
STARTCHAR U+EE1A
ENCODING 60954
SWIDTH 500 0
DWIDTH 2 0
BBX 2 4 0 -1
BITMAP
00
40
80
80
ENDCHAR
STARTCHAR U+EE1B
ENCODING 60955
SWIDTH 500 0
DWIDTH 2 0
BBX 2 4 0 -1
BITMAP
00
40
80
C0
ENDCHAR
STARTCHAR U+EE1C
ENCODING 60956
SWIDTH 500 0
DWIDTH 2 0
BBX 2 4 0 -1
BITMAP
00
40
C0
00
ENDCHAR
STARTCHAR U+EE1D
ENCODING 60957
SWIDTH 500 0
DWIDTH 2 0
BBX 2 4 0 -1
BITMAP
00
40
C0
40
ENDCHAR
STARTCHAR U+EE1E
ENCODING 60958
SWIDTH 500 0
DWIDTH 2 0
BBX 2 4 0 -1
BITMAP
00
40
C0
80
ENDCHAR
STARTCHAR U+EE1F
ENCODING 60959
SWIDTH 500 0
DWIDTH 2 0
BBX 2 4 0 -1
BITMAP
00
40
C0
C0
ENDCHAR
STARTCHAR U+EE20
ENCODING 60960
SWIDTH 500 0
DWIDTH 2 0
BBX 2 4 0 -1
BITMAP
00
80
00
00
ENDCHAR
STARTCHAR U+EE21
ENCODING 60961
SWIDTH 500 0
DWIDTH 2 0
BBX 2 4 0 -1
BITMAP
00
80
00
40
ENDCHAR
STARTCHAR U+EE22
ENCODING 60962
SWIDTH 500 0
DWIDTH 2 0
BBX 2 4 0 -1
BITMAP
00
80
00
80
ENDCHAR
STARTCHAR U+EE23
ENCODING 60963
SWIDTH 500 0
DWIDTH 2 0
BBX 2 4 0 -1
BITMAP
00
80
00
C0
ENDCHAR
STARTCHAR U+EE24
ENCODING 60964
SWIDTH 500 0
DWIDTH 2 0
BBX 2 4 0 -1
BITMAP
00
80
40
00
ENDCHAR
STARTCHAR U+EE25
ENCODING 60965
SWIDTH 500 0
DWIDTH 2 0
BBX 2 4 0 -1
BITMAP
00
80
40
40
ENDCHAR
STARTCHAR U+EE26
ENCODING 60966
SWIDTH 500 0
DWIDTH 2 0
BBX 2 4 0 -1
BITMAP
00
80
40
80
ENDCHAR
STARTCHAR U+EE27
ENCODING 60967
SWIDTH 500 0
DWIDTH 2 0
BBX 2 4 0 -1
BITMAP
00
80
40
C0
ENDCHAR
STARTCHAR U+EE28
ENCODING 60968
SWIDTH 500 0
DWIDTH 2 0
BBX 2 4 0 -1
BITMAP
00
80
80
00
ENDCHAR
STARTCHAR U+EE29
ENCODING 60969
SWIDTH 500 0
DWIDTH 2 0
BBX 2 4 0 -1
BITMAP
00
80
80
40
ENDCHAR
STARTCHAR U+EE2A
ENCODING 60970
SWIDTH 500 0
DWIDTH 2 0
BBX 2 4 0 -1
BITMAP
00
80
80
80
ENDCHAR
STARTCHAR U+EE2B
ENCODING 60971
SWIDTH 500 0
DWIDTH 2 0
BBX 2 4 0 -1
BITMAP
00
80
80
C0
ENDCHAR
STARTCHAR U+EE2C
ENCODING 60972
SWIDTH 500 0
DWIDTH 2 0
BBX 2 4 0 -1
BITMAP
00
80
C0
00
ENDCHAR
STARTCHAR U+EE2D
ENCODING 60973
SWIDTH 500 0
DWIDTH 2 0
BBX 2 4 0 -1
BITMAP
00
80
C0
40
ENDCHAR
STARTCHAR U+EE2E
ENCODING 60974
SWIDTH 500 0
DWIDTH 2 0
BBX 2 4 0 -1
BITMAP
00
80
C0
80
ENDCHAR
STARTCHAR U+EE2F
ENCODING 60975
SWIDTH 500 0
DWIDTH 2 0
BBX 2 4 0 -1
BITMAP
00
80
C0
C0
ENDCHAR
STARTCHAR U+EE30
ENCODING 60976
SWIDTH 500 0
DWIDTH 2 0
BBX 2 4 0 -1
BITMAP
00
C0
00
00
ENDCHAR
STARTCHAR U+EE31
ENCODING 60977
SWIDTH 500 0
DWIDTH 2 0
BBX 2 4 0 -1
BITMAP
00
C0
00
40
ENDCHAR
STARTCHAR U+EE32
ENCODING 60978
SWIDTH 500 0
DWIDTH 2 0
BBX 2 4 0 -1
BITMAP
00
C0
00
80
ENDCHAR
STARTCHAR U+EE33
ENCODING 60979
SWIDTH 500 0
DWIDTH 2 0
BBX 2 4 0 -1
BITMAP
00
C0
00
C0
ENDCHAR
STARTCHAR U+EE34
ENCODING 60980
SWIDTH 500 0
DWIDTH 2 0
BBX 2 4 0 -1
BITMAP
00
C0
40
00
ENDCHAR
STARTCHAR U+EE35
ENCODING 60981
SWIDTH 500 0
DWIDTH 2 0
BBX 2 4 0 -1
BITMAP
00
C0
40
40
ENDCHAR
STARTCHAR U+EE36
ENCODING 60982
SWIDTH 500 0
DWIDTH 2 0
BBX 2 4 0 -1
BITMAP
00
C0
40
80
ENDCHAR
STARTCHAR U+EE37
ENCODING 60983
SWIDTH 500 0
DWIDTH 2 0
BBX 2 4 0 -1
BITMAP
00
C0
40
C0
ENDCHAR
STARTCHAR U+EE38
ENCODING 60984
SWIDTH 500 0
DWIDTH 2 0
BBX 2 4 0 -1
BITMAP
00
C0
80
00
ENDCHAR
STARTCHAR U+EE39
ENCODING 60985
SWIDTH 500 0
DWIDTH 2 0
BBX 2 4 0 -1
BITMAP
00
C0
80
40
ENDCHAR
STARTCHAR U+EE3A
ENCODING 60986
SWIDTH 500 0
DWIDTH 2 0
BBX 2 4 0 -1
BITMAP
00
C0
80
80
ENDCHAR
STARTCHAR U+EE3B
ENCODING 60987
SWIDTH 500 0
DWIDTH 2 0
BBX 2 4 0 -1
BITMAP
00
C0
80
C0
ENDCHAR
STARTCHAR U+EE3C
ENCODING 60988
SWIDTH 500 0
DWIDTH 2 0
BBX 2 4 0 -1
BITMAP
00
C0
C0
00
ENDCHAR
STARTCHAR U+EE3D
ENCODING 60989
SWIDTH 500 0
DWIDTH 2 0
BBX 2 4 0 -1
BITMAP
00
C0
C0
40
ENDCHAR
STARTCHAR U+EE3E
ENCODING 60990
SWIDTH 500 0
DWIDTH 2 0
BBX 2 4 0 -1
BITMAP
00
C0
C0
80
ENDCHAR
STARTCHAR U+EE3F
ENCODING 60991
SWIDTH 500 0
DWIDTH 2 0
BBX 2 4 0 -1
BITMAP
00
C0
C0
C0
ENDCHAR
STARTCHAR U+EE40
ENCODING 60992
SWIDTH 500 0
DWIDTH 2 0
BBX 2 4 0 -1
BITMAP
40
00
00
00
ENDCHAR
STARTCHAR U+EE41
ENCODING 60993
SWIDTH 500 0
DWIDTH 2 0
BBX 2 4 0 -1
BITMAP
40
00
00
40
ENDCHAR
STARTCHAR U+EE42
ENCODING 60994
SWIDTH 500 0
DWIDTH 2 0
BBX 2 4 0 -1
BITMAP
40
00
00
80
ENDCHAR
STARTCHAR U+EE43
ENCODING 60995
SWIDTH 500 0
DWIDTH 2 0
BBX 2 4 0 -1
BITMAP
40
00
00
C0
ENDCHAR
STARTCHAR U+EE44
ENCODING 60996
SWIDTH 500 0
DWIDTH 2 0
BBX 2 4 0 -1
BITMAP
40
00
40
00
ENDCHAR
STARTCHAR U+EE45
ENCODING 60997
SWIDTH 500 0
DWIDTH 2 0
BBX 2 4 0 -1
BITMAP
40
00
40
40
ENDCHAR
STARTCHAR U+EE46
ENCODING 60998
SWIDTH 500 0
DWIDTH 2 0
BBX 2 4 0 -1
BITMAP
40
00
40
80
ENDCHAR
STARTCHAR U+EE47
ENCODING 60999
SWIDTH 500 0
DWIDTH 2 0
BBX 2 4 0 -1
BITMAP
40
00
40
C0
ENDCHAR
STARTCHAR U+EE48
ENCODING 61000
SWIDTH 500 0
DWIDTH 2 0
BBX 2 4 0 -1
BITMAP
40
00
80
00
ENDCHAR
STARTCHAR U+EE49
ENCODING 61001
SWIDTH 500 0
DWIDTH 2 0
BBX 2 4 0 -1
BITMAP
40
00
80
40
ENDCHAR
STARTCHAR U+EE4A
ENCODING 61002
SWIDTH 500 0
DWIDTH 2 0
BBX 2 4 0 -1
BITMAP
40
00
80
80
ENDCHAR
STARTCHAR U+EE4B
ENCODING 61003
SWIDTH 500 0
DWIDTH 2 0
BBX 2 4 0 -1
BITMAP
40
00
80
C0
ENDCHAR
STARTCHAR U+EE4C
ENCODING 61004
SWIDTH 500 0
DWIDTH 2 0
BBX 2 4 0 -1
BITMAP
40
00
C0
00
ENDCHAR
STARTCHAR U+EE4D
ENCODING 61005
SWIDTH 500 0
DWIDTH 2 0
BBX 2 4 0 -1
BITMAP
40
00
C0
40
ENDCHAR
STARTCHAR U+EE4E
ENCODING 61006
SWIDTH 500 0
DWIDTH 2 0
BBX 2 4 0 -1
BITMAP
40
00
C0
80
ENDCHAR
STARTCHAR U+EE4F
ENCODING 61007
SWIDTH 500 0
DWIDTH 2 0
BBX 2 4 0 -1
BITMAP
40
00
C0
C0
ENDCHAR
STARTCHAR U+EE50
ENCODING 61008
SWIDTH 500 0
DWIDTH 2 0
BBX 2 4 0 -1
BITMAP
40
40
00
00
ENDCHAR
STARTCHAR U+EE51
ENCODING 61009
SWIDTH 500 0
DWIDTH 2 0
BBX 2 4 0 -1
BITMAP
40
40
00
40
ENDCHAR
STARTCHAR U+EE52
ENCODING 61010
SWIDTH 500 0
DWIDTH 2 0
BBX 2 4 0 -1
BITMAP
40
40
00
80
ENDCHAR
STARTCHAR U+EE53
ENCODING 61011
SWIDTH 500 0
DWIDTH 2 0
BBX 2 4 0 -1
BITMAP
40
40
00
C0
ENDCHAR
STARTCHAR U+EE54
ENCODING 61012
SWIDTH 500 0
DWIDTH 2 0
BBX 2 4 0 -1
BITMAP
40
40
40
00
ENDCHAR
STARTCHAR U+EE55
ENCODING 61013
SWIDTH 500 0
DWIDTH 2 0
BBX 2 4 0 -1
BITMAP
40
40
40
40
ENDCHAR
STARTCHAR U+EE56
ENCODING 61014
SWIDTH 500 0
DWIDTH 2 0
BBX 2 4 0 -1
BITMAP
40
40
40
80
ENDCHAR
STARTCHAR U+EE57
ENCODING 61015
SWIDTH 500 0
DWIDTH 2 0
BBX 2 4 0 -1
BITMAP
40
40
40
C0
ENDCHAR
STARTCHAR U+EE58
ENCODING 61016
SWIDTH 500 0
DWIDTH 2 0
BBX 2 4 0 -1
BITMAP
40
40
80
00
ENDCHAR
STARTCHAR U+EE59
ENCODING 61017
SWIDTH 500 0
DWIDTH 2 0
BBX 2 4 0 -1
BITMAP
40
40
80
40
ENDCHAR
STARTCHAR U+EE5A
ENCODING 61018
SWIDTH 500 0
DWIDTH 2 0
BBX 2 4 0 -1
BITMAP
40
40
80
80
ENDCHAR
STARTCHAR U+EE5B
ENCODING 61019
SWIDTH 500 0
DWIDTH 2 0
BBX 2 4 0 -1
BITMAP
40
40
80
C0
ENDCHAR
STARTCHAR U+EE5C
ENCODING 61020
SWIDTH 500 0
DWIDTH 2 0
BBX 2 4 0 -1
BITMAP
40
40
C0
00
ENDCHAR
STARTCHAR U+EE5D
ENCODING 61021
SWIDTH 500 0
DWIDTH 2 0
BBX 2 4 0 -1
BITMAP
40
40
C0
40
ENDCHAR
STARTCHAR U+EE5E
ENCODING 61022
SWIDTH 500 0
DWIDTH 2 0
BBX 2 4 0 -1
BITMAP
40
40
C0
80
ENDCHAR
STARTCHAR U+EE5F
ENCODING 61023
SWIDTH 500 0
DWIDTH 2 0
BBX 2 4 0 -1
BITMAP
40
40
C0
C0
ENDCHAR
STARTCHAR U+EE60
ENCODING 61024
SWIDTH 500 0
DWIDTH 2 0
BBX 2 4 0 -1
BITMAP
40
80
00
00
ENDCHAR
STARTCHAR U+EE61
ENCODING 61025
SWIDTH 500 0
DWIDTH 2 0
BBX 2 4 0 -1
BITMAP
40
80
00
40
ENDCHAR
STARTCHAR U+EE62
ENCODING 61026
SWIDTH 500 0
DWIDTH 2 0
BBX 2 4 0 -1
BITMAP
40
80
00
80
ENDCHAR
STARTCHAR U+EE63
ENCODING 61027
SWIDTH 500 0
DWIDTH 2 0
BBX 2 4 0 -1
BITMAP
40
80
00
C0
ENDCHAR
STARTCHAR U+EE64
ENCODING 61028
SWIDTH 500 0
DWIDTH 2 0
BBX 2 4 0 -1
BITMAP
40
80
40
00
ENDCHAR
STARTCHAR U+EE65
ENCODING 61029
SWIDTH 500 0
DWIDTH 2 0
BBX 2 4 0 -1
BITMAP
40
80
40
40
ENDCHAR
STARTCHAR U+EE66
ENCODING 61030
SWIDTH 500 0
DWIDTH 2 0
BBX 2 4 0 -1
BITMAP
40
80
40
80
ENDCHAR
STARTCHAR U+EE67
ENCODING 61031
SWIDTH 500 0
DWIDTH 2 0
BBX 2 4 0 -1
BITMAP
40
80
40
C0
ENDCHAR
STARTCHAR U+EE68
ENCODING 61032
SWIDTH 500 0
DWIDTH 2 0
BBX 2 4 0 -1
BITMAP
40
80
80
00
ENDCHAR
STARTCHAR U+EE69
ENCODING 61033
SWIDTH 500 0
DWIDTH 2 0
BBX 2 4 0 -1
BITMAP
40
80
80
40
ENDCHAR
STARTCHAR U+EE6A
ENCODING 61034
SWIDTH 500 0
DWIDTH 2 0
BBX 2 4 0 -1
BITMAP
40
80
80
80
ENDCHAR
STARTCHAR U+EE6B
ENCODING 61035
SWIDTH 500 0
DWIDTH 2 0
BBX 2 4 0 -1
BITMAP
40
80
80
C0
ENDCHAR
STARTCHAR U+EE6C
ENCODING 61036
SWIDTH 500 0
DWIDTH 2 0
BBX 2 4 0 -1
BITMAP
40
80
C0
00
ENDCHAR
STARTCHAR U+EE6D
ENCODING 61037
SWIDTH 500 0
DWIDTH 2 0
BBX 2 4 0 -1
BITMAP
40
80
C0
40
ENDCHAR
STARTCHAR U+EE6E
ENCODING 61038
SWIDTH 500 0
DWIDTH 2 0
BBX 2 4 0 -1
BITMAP
40
80
C0
80
ENDCHAR
STARTCHAR U+EE6F
ENCODING 61039
SWIDTH 500 0
DWIDTH 2 0
BBX 2 4 0 -1
BITMAP
40
80
C0
C0
ENDCHAR
STARTCHAR U+EE70
ENCODING 61040
SWIDTH 500 0
DWIDTH 2 0
BBX 2 4 0 -1
BITMAP
40
C0
00
00
ENDCHAR
STARTCHAR U+EE71
ENCODING 61041
SWIDTH 500 0
DWIDTH 2 0
BBX 2 4 0 -1
BITMAP
40
C0
00
40
ENDCHAR
STARTCHAR U+EE72
ENCODING 61042
SWIDTH 500 0
DWIDTH 2 0
BBX 2 4 0 -1
BITMAP
40
C0
00
80
ENDCHAR
STARTCHAR U+EE73
ENCODING 61043
SWIDTH 500 0
DWIDTH 2 0
BBX 2 4 0 -1
BITMAP
40
C0
00
C0
ENDCHAR
STARTCHAR U+EE74
ENCODING 61044
SWIDTH 500 0
DWIDTH 2 0
BBX 2 4 0 -1
BITMAP
40
C0
40
00
ENDCHAR
STARTCHAR U+EE75
ENCODING 61045
SWIDTH 500 0
DWIDTH 2 0
BBX 2 4 0 -1
BITMAP
40
C0
40
40
ENDCHAR
STARTCHAR U+EE76
ENCODING 61046
SWIDTH 500 0
DWIDTH 2 0
BBX 2 4 0 -1
BITMAP
40
C0
40
80
ENDCHAR
STARTCHAR U+EE77
ENCODING 61047
SWIDTH 500 0
DWIDTH 2 0
BBX 2 4 0 -1
BITMAP
40
C0
40
C0
ENDCHAR
STARTCHAR U+EE78
ENCODING 61048
SWIDTH 500 0
DWIDTH 2 0
BBX 2 4 0 -1
BITMAP
40
C0
80
00
ENDCHAR
STARTCHAR U+EE79
ENCODING 61049
SWIDTH 500 0
DWIDTH 2 0
BBX 2 4 0 -1
BITMAP
40
C0
80
40
ENDCHAR
STARTCHAR U+EE7A
ENCODING 61050
SWIDTH 500 0
DWIDTH 2 0
BBX 2 4 0 -1
BITMAP
40
C0
80
80
ENDCHAR
STARTCHAR U+EE7B
ENCODING 61051
SWIDTH 500 0
DWIDTH 2 0
BBX 2 4 0 -1
BITMAP
40
C0
80
C0
ENDCHAR
STARTCHAR U+EE7C
ENCODING 61052
SWIDTH 500 0
DWIDTH 2 0
BBX 2 4 0 -1
BITMAP
40
C0
C0
00
ENDCHAR
STARTCHAR U+EE7D
ENCODING 61053
SWIDTH 500 0
DWIDTH 2 0
BBX 2 4 0 -1
BITMAP
40
C0
C0
40
ENDCHAR
STARTCHAR U+EE7E
ENCODING 61054
SWIDTH 500 0
DWIDTH 2 0
BBX 2 4 0 -1
BITMAP
40
C0
C0
80
ENDCHAR
STARTCHAR U+EE7F
ENCODING 61055
SWIDTH 500 0
DWIDTH 2 0
BBX 2 4 0 -1
BITMAP
40
C0
C0
C0
ENDCHAR
STARTCHAR U+EE80
ENCODING 61056
SWIDTH 500 0
DWIDTH 2 0
BBX 2 4 0 -1
BITMAP
80
00
00
00
ENDCHAR
STARTCHAR U+EE81
ENCODING 61057
SWIDTH 500 0
DWIDTH 2 0
BBX 2 4 0 -1
BITMAP
80
00
00
40
ENDCHAR
STARTCHAR U+EE82
ENCODING 61058
SWIDTH 500 0
DWIDTH 2 0
BBX 2 4 0 -1
BITMAP
80
00
00
80
ENDCHAR
STARTCHAR U+EE83
ENCODING 61059
SWIDTH 500 0
DWIDTH 2 0
BBX 2 4 0 -1
BITMAP
80
00
00
C0
ENDCHAR
STARTCHAR U+EE84
ENCODING 61060
SWIDTH 500 0
DWIDTH 2 0
BBX 2 4 0 -1
BITMAP
80
00
40
00
ENDCHAR
STARTCHAR U+EE85
ENCODING 61061
SWIDTH 500 0
DWIDTH 2 0
BBX 2 4 0 -1
BITMAP
80
00
40
40
ENDCHAR
STARTCHAR U+EE86
ENCODING 61062
SWIDTH 500 0
DWIDTH 2 0
BBX 2 4 0 -1
BITMAP
80
00
40
80
ENDCHAR
STARTCHAR U+EE87
ENCODING 61063
SWIDTH 500 0
DWIDTH 2 0
BBX 2 4 0 -1
BITMAP
80
00
40
C0
ENDCHAR
STARTCHAR U+EE88
ENCODING 61064
SWIDTH 500 0
DWIDTH 2 0
BBX 2 4 0 -1
BITMAP
80
00
80
00
ENDCHAR
STARTCHAR U+EE89
ENCODING 61065
SWIDTH 500 0
DWIDTH 2 0
BBX 2 4 0 -1
BITMAP
80
00
80
40
ENDCHAR
STARTCHAR U+EE8A
ENCODING 61066
SWIDTH 500 0
DWIDTH 2 0
BBX 2 4 0 -1
BITMAP
80
00
80
80
ENDCHAR
STARTCHAR U+EE8B
ENCODING 61067
SWIDTH 500 0
DWIDTH 2 0
BBX 2 4 0 -1
BITMAP
80
00
80
C0
ENDCHAR
STARTCHAR U+EE8C
ENCODING 61068
SWIDTH 500 0
DWIDTH 2 0
BBX 2 4 0 -1
BITMAP
80
00
C0
00
ENDCHAR
STARTCHAR U+EE8D
ENCODING 61069
SWIDTH 500 0
DWIDTH 2 0
BBX 2 4 0 -1
BITMAP
80
00
C0
40
ENDCHAR
STARTCHAR U+EE8E
ENCODING 61070
SWIDTH 500 0
DWIDTH 2 0
BBX 2 4 0 -1
BITMAP
80
00
C0
80
ENDCHAR
STARTCHAR U+EE8F
ENCODING 61071
SWIDTH 500 0
DWIDTH 2 0
BBX 2 4 0 -1
BITMAP
80
00
C0
C0
ENDCHAR
STARTCHAR U+EE90
ENCODING 61072
SWIDTH 500 0
DWIDTH 2 0
BBX 2 4 0 -1
BITMAP
80
40
00
00
ENDCHAR
STARTCHAR U+EE91
ENCODING 61073
SWIDTH 500 0
DWIDTH 2 0
BBX 2 4 0 -1
BITMAP
80
40
00
40
ENDCHAR
STARTCHAR U+EE92
ENCODING 61074
SWIDTH 500 0
DWIDTH 2 0
BBX 2 4 0 -1
BITMAP
80
40
00
80
ENDCHAR
STARTCHAR U+EE93
ENCODING 61075
SWIDTH 500 0
DWIDTH 2 0
BBX 2 4 0 -1
BITMAP
80
40
00
C0
ENDCHAR
STARTCHAR U+EE94
ENCODING 61076
SWIDTH 500 0
DWIDTH 2 0
BBX 2 4 0 -1
BITMAP
80
40
40
00
ENDCHAR
STARTCHAR U+EE95
ENCODING 61077
SWIDTH 500 0
DWIDTH 2 0
BBX 2 4 0 -1
BITMAP
80
40
40
40
ENDCHAR
STARTCHAR U+EE96
ENCODING 61078
SWIDTH 500 0
DWIDTH 2 0
BBX 2 4 0 -1
BITMAP
80
40
40
80
ENDCHAR
STARTCHAR U+EE97
ENCODING 61079
SWIDTH 500 0
DWIDTH 2 0
BBX 2 4 0 -1
BITMAP
80
40
40
C0
ENDCHAR
STARTCHAR U+EE98
ENCODING 61080
SWIDTH 500 0
DWIDTH 2 0
BBX 2 4 0 -1
BITMAP
80
40
80
00
ENDCHAR
STARTCHAR U+EE99
ENCODING 61081
SWIDTH 500 0
DWIDTH 2 0
BBX 2 4 0 -1
BITMAP
80
40
80
40
ENDCHAR
STARTCHAR U+EE9A
ENCODING 61082
SWIDTH 500 0
DWIDTH 2 0
BBX 2 4 0 -1
BITMAP
80
40
80
80
ENDCHAR
STARTCHAR U+EE9B
ENCODING 61083
SWIDTH 500 0
DWIDTH 2 0
BBX 2 4 0 -1
BITMAP
80
40
80
C0
ENDCHAR
STARTCHAR U+EE9C
ENCODING 61084
SWIDTH 500 0
DWIDTH 2 0
BBX 2 4 0 -1
BITMAP
80
40
C0
00
ENDCHAR
STARTCHAR U+EE9D
ENCODING 61085
SWIDTH 500 0
DWIDTH 2 0
BBX 2 4 0 -1
BITMAP
80
40
C0
40
ENDCHAR
STARTCHAR U+EE9E
ENCODING 61086
SWIDTH 500 0
DWIDTH 2 0
BBX 2 4 0 -1
BITMAP
80
40
C0
80
ENDCHAR
STARTCHAR U+EE9F
ENCODING 61087
SWIDTH 500 0
DWIDTH 2 0
BBX 2 4 0 -1
BITMAP
80
40
C0
C0
ENDCHAR
STARTCHAR U+EEA0
ENCODING 61088
SWIDTH 500 0
DWIDTH 2 0
BBX 2 4 0 -1
BITMAP
80
80
00
00
ENDCHAR
STARTCHAR U+EEA1
ENCODING 61089
SWIDTH 500 0
DWIDTH 2 0
BBX 2 4 0 -1
BITMAP
80
80
00
40
ENDCHAR
STARTCHAR U+EEA2
ENCODING 61090
SWIDTH 500 0
DWIDTH 2 0
BBX 2 4 0 -1
BITMAP
80
80
00
80
ENDCHAR
STARTCHAR U+EEA3
ENCODING 61091
SWIDTH 500 0
DWIDTH 2 0
BBX 2 4 0 -1
BITMAP
80
80
00
C0
ENDCHAR
STARTCHAR U+EEA4
ENCODING 61092
SWIDTH 500 0
DWIDTH 2 0
BBX 2 4 0 -1
BITMAP
80
80
40
00
ENDCHAR
STARTCHAR U+EEA5
ENCODING 61093
SWIDTH 500 0
DWIDTH 2 0
BBX 2 4 0 -1
BITMAP
80
80
40
40
ENDCHAR
STARTCHAR U+EEA6
ENCODING 61094
SWIDTH 500 0
DWIDTH 2 0
BBX 2 4 0 -1
BITMAP
80
80
40
80
ENDCHAR
STARTCHAR U+EEA7
ENCODING 61095
SWIDTH 500 0
DWIDTH 2 0
BBX 2 4 0 -1
BITMAP
80
80
40
C0
ENDCHAR
STARTCHAR U+EEA8
ENCODING 61096
SWIDTH 500 0
DWIDTH 2 0
BBX 2 4 0 -1
BITMAP
80
80
80
00
ENDCHAR
STARTCHAR U+EEA9
ENCODING 61097
SWIDTH 500 0
DWIDTH 2 0
BBX 2 4 0 -1
BITMAP
80
80
80
40
ENDCHAR
STARTCHAR U+EEAA
ENCODING 61098
SWIDTH 500 0
DWIDTH 2 0
BBX 2 4 0 -1
BITMAP
80
80
80
80
ENDCHAR
STARTCHAR U+EEAB
ENCODING 61099
SWIDTH 500 0
DWIDTH 2 0
BBX 2 4 0 -1
BITMAP
80
80
80
C0
ENDCHAR
STARTCHAR U+EEAC
ENCODING 61100
SWIDTH 500 0
DWIDTH 2 0
BBX 2 4 0 -1
BITMAP
80
80
C0
00
ENDCHAR
STARTCHAR U+EEAD
ENCODING 61101
SWIDTH 500 0
DWIDTH 2 0
BBX 2 4 0 -1
BITMAP
80
80
C0
40
ENDCHAR
STARTCHAR U+EEAE
ENCODING 61102
SWIDTH 500 0
DWIDTH 2 0
BBX 2 4 0 -1
BITMAP
80
80
C0
80
ENDCHAR
STARTCHAR U+EEAF
ENCODING 61103
SWIDTH 500 0
DWIDTH 2 0
BBX 2 4 0 -1
BITMAP
80
80
C0
C0
ENDCHAR
STARTCHAR U+EEB0
ENCODING 61104
SWIDTH 500 0
DWIDTH 2 0
BBX 2 4 0 -1
BITMAP
80
C0
00
00
ENDCHAR
STARTCHAR U+EEB1
ENCODING 61105
SWIDTH 500 0
DWIDTH 2 0
BBX 2 4 0 -1
BITMAP
80
C0
00
40
ENDCHAR
STARTCHAR U+EEB2
ENCODING 61106
SWIDTH 500 0
DWIDTH 2 0
BBX 2 4 0 -1
BITMAP
80
C0
00
80
ENDCHAR
STARTCHAR U+EEB3
ENCODING 61107
SWIDTH 500 0
DWIDTH 2 0
BBX 2 4 0 -1
BITMAP
80
C0
00
C0
ENDCHAR
STARTCHAR U+EEB4
ENCODING 61108
SWIDTH 500 0
DWIDTH 2 0
BBX 2 4 0 -1
BITMAP
80
C0
40
00
ENDCHAR
STARTCHAR U+EEB5
ENCODING 61109
SWIDTH 500 0
DWIDTH 2 0
BBX 2 4 0 -1
BITMAP
80
C0
40
40
ENDCHAR
STARTCHAR U+EEB6
ENCODING 61110
SWIDTH 500 0
DWIDTH 2 0
BBX 2 4 0 -1
BITMAP
80
C0
40
80
ENDCHAR
STARTCHAR U+EEB7
ENCODING 61111
SWIDTH 500 0
DWIDTH 2 0
BBX 2 4 0 -1
BITMAP
80
C0
40
C0
ENDCHAR
STARTCHAR U+EEB8
ENCODING 61112
SWIDTH 500 0
DWIDTH 2 0
BBX 2 4 0 -1
BITMAP
80
C0
80
00
ENDCHAR
STARTCHAR U+EEB9
ENCODING 61113
SWIDTH 500 0
DWIDTH 2 0
BBX 2 4 0 -1
BITMAP
80
C0
80
40
ENDCHAR
STARTCHAR U+EEBA
ENCODING 61114
SWIDTH 500 0
DWIDTH 2 0
BBX 2 4 0 -1
BITMAP
80
C0
80
80
ENDCHAR
STARTCHAR U+EEBB
ENCODING 61115
SWIDTH 500 0
DWIDTH 2 0
BBX 2 4 0 -1
BITMAP
80
C0
80
C0
ENDCHAR
STARTCHAR U+EEBC
ENCODING 61116
SWIDTH 500 0
DWIDTH 2 0
BBX 2 4 0 -1
BITMAP
80
C0
C0
00
ENDCHAR
STARTCHAR U+EEBD
ENCODING 61117
SWIDTH 500 0
DWIDTH 2 0
BBX 2 4 0 -1
BITMAP
80
C0
C0
40
ENDCHAR
STARTCHAR U+EEBE
ENCODING 61118
SWIDTH 500 0
DWIDTH 2 0
BBX 2 4 0 -1
BITMAP
80
C0
C0
80
ENDCHAR
STARTCHAR U+EEBF
ENCODING 61119
SWIDTH 500 0
DWIDTH 2 0
BBX 2 4 0 -1
BITMAP
80
C0
C0
C0
ENDCHAR
STARTCHAR U+EEC0
ENCODING 61120
SWIDTH 500 0
DWIDTH 2 0
BBX 2 4 0 -1
BITMAP
C0
00
00
00
ENDCHAR
STARTCHAR U+EEC1
ENCODING 61121
SWIDTH 500 0
DWIDTH 2 0
BBX 2 4 0 -1
BITMAP
C0
00
00
40
ENDCHAR
STARTCHAR U+EEC2
ENCODING 61122
SWIDTH 500 0
DWIDTH 2 0
BBX 2 4 0 -1
BITMAP
C0
00
00
80
ENDCHAR
STARTCHAR U+EEC3
ENCODING 61123
SWIDTH 500 0
DWIDTH 2 0
BBX 2 4 0 -1
BITMAP
C0
00
00
C0
ENDCHAR
STARTCHAR U+EEC4
ENCODING 61124
SWIDTH 500 0
DWIDTH 2 0
BBX 2 4 0 -1
BITMAP
C0
00
40
00
ENDCHAR
STARTCHAR U+EEC5
ENCODING 61125
SWIDTH 500 0
DWIDTH 2 0
BBX 2 4 0 -1
BITMAP
C0
00
40
40
ENDCHAR
STARTCHAR U+EEC6
ENCODING 61126
SWIDTH 500 0
DWIDTH 2 0
BBX 2 4 0 -1
BITMAP
C0
00
40
80
ENDCHAR
STARTCHAR U+EEC7
ENCODING 61127
SWIDTH 500 0
DWIDTH 2 0
BBX 2 4 0 -1
BITMAP
C0
00
40
C0
ENDCHAR
STARTCHAR U+EEC8
ENCODING 61128
SWIDTH 500 0
DWIDTH 2 0
BBX 2 4 0 -1
BITMAP
C0
00
80
00
ENDCHAR
STARTCHAR U+EEC9
ENCODING 61129
SWIDTH 500 0
DWIDTH 2 0
BBX 2 4 0 -1
BITMAP
C0
00
80
40
ENDCHAR
STARTCHAR U+EECA
ENCODING 61130
SWIDTH 500 0
DWIDTH 2 0
BBX 2 4 0 -1
BITMAP
C0
00
80
80
ENDCHAR
STARTCHAR U+EECB
ENCODING 61131
SWIDTH 500 0
DWIDTH 2 0
BBX 2 4 0 -1
BITMAP
C0
00
80
C0
ENDCHAR
STARTCHAR U+EECC
ENCODING 61132
SWIDTH 500 0
DWIDTH 2 0
BBX 2 4 0 -1
BITMAP
C0
00
C0
00
ENDCHAR
STARTCHAR U+EECD
ENCODING 61133
SWIDTH 500 0
DWIDTH 2 0
BBX 2 4 0 -1
BITMAP
C0
00
C0
40
ENDCHAR
STARTCHAR U+EECE
ENCODING 61134
SWIDTH 500 0
DWIDTH 2 0
BBX 2 4 0 -1
BITMAP
C0
00
C0
80
ENDCHAR
STARTCHAR U+EECF
ENCODING 61135
SWIDTH 500 0
DWIDTH 2 0
BBX 2 4 0 -1
BITMAP
C0
00
C0
C0
ENDCHAR
STARTCHAR U+EED0
ENCODING 61136
SWIDTH 500 0
DWIDTH 2 0
BBX 2 4 0 -1
BITMAP
C0
40
00
00
ENDCHAR
STARTCHAR U+EED1
ENCODING 61137
SWIDTH 500 0
DWIDTH 2 0
BBX 2 4 0 -1
BITMAP
C0
40
00
40
ENDCHAR
STARTCHAR U+EED2
ENCODING 61138
SWIDTH 500 0
DWIDTH 2 0
BBX 2 4 0 -1
BITMAP
C0
40
00
80
ENDCHAR
STARTCHAR U+EED3
ENCODING 61139
SWIDTH 500 0
DWIDTH 2 0
BBX 2 4 0 -1
BITMAP
C0
40
00
C0
ENDCHAR
STARTCHAR U+EED4
ENCODING 61140
SWIDTH 500 0
DWIDTH 2 0
BBX 2 4 0 -1
BITMAP
C0
40
40
00
ENDCHAR
STARTCHAR U+EED5
ENCODING 61141
SWIDTH 500 0
DWIDTH 2 0
BBX 2 4 0 -1
BITMAP
C0
40
40
40
ENDCHAR
STARTCHAR U+EED6
ENCODING 61142
SWIDTH 500 0
DWIDTH 2 0
BBX 2 4 0 -1
BITMAP
C0
40
40
80
ENDCHAR
STARTCHAR U+EED7
ENCODING 61143
SWIDTH 500 0
DWIDTH 2 0
BBX 2 4 0 -1
BITMAP
C0
40
40
C0
ENDCHAR
STARTCHAR U+EED8
ENCODING 61144
SWIDTH 500 0
DWIDTH 2 0
BBX 2 4 0 -1
BITMAP
C0
40
80
00
ENDCHAR
STARTCHAR U+EED9
ENCODING 61145
SWIDTH 500 0
DWIDTH 2 0
BBX 2 4 0 -1
BITMAP
C0
40
80
40
ENDCHAR
STARTCHAR U+EEDA
ENCODING 61146
SWIDTH 500 0
DWIDTH 2 0
BBX 2 4 0 -1
BITMAP
C0
40
80
80
ENDCHAR
STARTCHAR U+EEDB
ENCODING 61147
SWIDTH 500 0
DWIDTH 2 0
BBX 2 4 0 -1
BITMAP
C0
40
80
C0
ENDCHAR
STARTCHAR U+EEDC
ENCODING 61148
SWIDTH 500 0
DWIDTH 2 0
BBX 2 4 0 -1
BITMAP
C0
40
C0
00
ENDCHAR
STARTCHAR U+EEDD
ENCODING 61149
SWIDTH 500 0
DWIDTH 2 0
BBX 2 4 0 -1
BITMAP
C0
40
C0
40
ENDCHAR
STARTCHAR U+EEDE
ENCODING 61150
SWIDTH 500 0
DWIDTH 2 0
BBX 2 4 0 -1
BITMAP
C0
40
C0
80
ENDCHAR
STARTCHAR U+EEDF
ENCODING 61151
SWIDTH 500 0
DWIDTH 2 0
BBX 2 4 0 -1
BITMAP
C0
40
C0
C0
ENDCHAR
STARTCHAR U+EEE0
ENCODING 61152
SWIDTH 500 0
DWIDTH 2 0
BBX 2 4 0 -1
BITMAP
C0
80
00
00
ENDCHAR
STARTCHAR U+EEE1
ENCODING 61153
SWIDTH 500 0
DWIDTH 2 0
BBX 2 4 0 -1
BITMAP
C0
80
00
40
ENDCHAR
STARTCHAR U+EEE2
ENCODING 61154
SWIDTH 500 0
DWIDTH 2 0
BBX 2 4 0 -1
BITMAP
C0
80
00
80
ENDCHAR
STARTCHAR U+EEE3
ENCODING 61155
SWIDTH 500 0
DWIDTH 2 0
BBX 2 4 0 -1
BITMAP
C0
80
00
C0
ENDCHAR
STARTCHAR U+EEE4
ENCODING 61156
SWIDTH 500 0
DWIDTH 2 0
BBX 2 4 0 -1
BITMAP
C0
80
40
00
ENDCHAR
STARTCHAR U+EEE5
ENCODING 61157
SWIDTH 500 0
DWIDTH 2 0
BBX 2 4 0 -1
BITMAP
C0
80
40
40
ENDCHAR
STARTCHAR U+EEE6
ENCODING 61158
SWIDTH 500 0
DWIDTH 2 0
BBX 2 4 0 -1
BITMAP
C0
80
40
80
ENDCHAR
STARTCHAR U+EEE7
ENCODING 61159
SWIDTH 500 0
DWIDTH 2 0
BBX 2 4 0 -1
BITMAP
C0
80
40
C0
ENDCHAR
STARTCHAR U+EEE8
ENCODING 61160
SWIDTH 500 0
DWIDTH 2 0
BBX 2 4 0 -1
BITMAP
C0
80
80
00
ENDCHAR
STARTCHAR U+EEE9
ENCODING 61161
SWIDTH 500 0
DWIDTH 2 0
BBX 2 4 0 -1
BITMAP
C0
80
80
40
ENDCHAR
STARTCHAR U+EEEA
ENCODING 61162
SWIDTH 500 0
DWIDTH 2 0
BBX 2 4 0 -1
BITMAP
C0
80
80
80
ENDCHAR
STARTCHAR U+EEEB
ENCODING 61163
SWIDTH 500 0
DWIDTH 2 0
BBX 2 4 0 -1
BITMAP
C0
80
80
C0
ENDCHAR
STARTCHAR U+EEEC
ENCODING 61164
SWIDTH 500 0
DWIDTH 2 0
BBX 2 4 0 -1
BITMAP
C0
80
C0
00
ENDCHAR
STARTCHAR U+EEED
ENCODING 61165
SWIDTH 500 0
DWIDTH 2 0
BBX 2 4 0 -1
BITMAP
C0
80
C0
40
ENDCHAR
STARTCHAR U+EEEE
ENCODING 61166
SWIDTH 500 0
DWIDTH 2 0
BBX 2 4 0 -1
BITMAP
C0
80
C0
80
ENDCHAR
STARTCHAR U+EEEF
ENCODING 61167
SWIDTH 500 0
DWIDTH 2 0
BBX 2 4 0 -1
BITMAP
C0
80
C0
C0
ENDCHAR
STARTCHAR U+EEF0
ENCODING 61168
SWIDTH 500 0
DWIDTH 2 0
BBX 2 4 0 -1
BITMAP
C0
C0
00
00
ENDCHAR
STARTCHAR U+EEF1
ENCODING 61169
SWIDTH 500 0
DWIDTH 2 0
BBX 2 4 0 -1
BITMAP
C0
C0
00
40
ENDCHAR
STARTCHAR U+EEF2
ENCODING 61170
SWIDTH 500 0
DWIDTH 2 0
BBX 2 4 0 -1
BITMAP
C0
C0
00
80
ENDCHAR
STARTCHAR U+EEF3
ENCODING 61171
SWIDTH 500 0
DWIDTH 2 0
BBX 2 4 0 -1
BITMAP
C0
C0
00
C0
ENDCHAR
STARTCHAR U+EEF4
ENCODING 61172
SWIDTH 500 0
DWIDTH 2 0
BBX 2 4 0 -1
BITMAP
C0
C0
40
00
ENDCHAR
STARTCHAR U+EEF5
ENCODING 61173
SWIDTH 500 0
DWIDTH 2 0
BBX 2 4 0 -1
BITMAP
C0
C0
40
40
ENDCHAR
STARTCHAR U+EEF6
ENCODING 61174
SWIDTH 500 0
DWIDTH 2 0
BBX 2 4 0 -1
BITMAP
C0
C0
40
80
ENDCHAR
STARTCHAR U+EEF7
ENCODING 61175
SWIDTH 500 0
DWIDTH 2 0
BBX 2 4 0 -1
BITMAP
C0
C0
40
C0
ENDCHAR
STARTCHAR U+EEF8
ENCODING 61176
SWIDTH 500 0
DWIDTH 2 0
BBX 2 4 0 -1
BITMAP
C0
C0
80
00
ENDCHAR
STARTCHAR U+EEF9
ENCODING 61177
SWIDTH 500 0
DWIDTH 2 0
BBX 2 4 0 -1
BITMAP
C0
C0
80
40
ENDCHAR
STARTCHAR U+EEFA
ENCODING 61178
SWIDTH 500 0
DWIDTH 2 0
BBX 2 4 0 -1
BITMAP
C0
C0
80
80
ENDCHAR
STARTCHAR U+EEFB
ENCODING 61179
SWIDTH 500 0
DWIDTH 2 0
BBX 2 4 0 -1
BITMAP
C0
C0
80
C0
ENDCHAR
STARTCHAR U+EEFC
ENCODING 61180
SWIDTH 500 0
DWIDTH 2 0
BBX 2 4 0 -1
BITMAP
C0
C0
C0
00
ENDCHAR
STARTCHAR U+EEFD
ENCODING 61181
SWIDTH 500 0
DWIDTH 2 0
BBX 2 4 0 -1
BITMAP
C0
C0
C0
40
ENDCHAR
STARTCHAR U+EEFE
ENCODING 61182
SWIDTH 500 0
DWIDTH 2 0
BBX 2 4 0 -1
BITMAP
C0
C0
C0
80
ENDCHAR
STARTCHAR U+EEFF
ENCODING 61183
SWIDTH 500 0
DWIDTH 2 0
BBX 2 4 0 -1
BITMAP
C0
C0
C0
C0
ENDCHAR
STARTCHAR U+FFFD
ENCODING 65533
SWIDTH 500 0
DWIDTH 2 0
BBX 2 4 0 -1
BITMAP
03
00
02
01
ENDCHAR
ENDFONT
